<?xml version="1.0" standalone="no"?>
<!DOCTYPE svg PUBLIC "-//W3C//DTD SVG 20010904//EN"
 "http://www.w3.org/TR/2001/REC-SVG-20010904/DTD/svg10.dtd">
<svg version="1.0" xmlns="http://www.w3.org/2000/svg"
 width="1254.000000pt" height="1254.000000pt" viewBox="0 0 1254.000000 1254.000000"
 preserveAspectRatio="xMidYMid meet">

<g transform="translate(0.000000,1254.000000) scale(0.100000,-0.100000)"
fill="#000000" stroke="none">
<path d="M3570 11283 c-242 -18 -537 -95 -778 -202 -798 -353 -1358 -1137
-1432 -2006 -8 -93 -10 -897 -8 -2800 3 -2518 5 -2676 22 -2775 89 -523 329
-992 691 -1355 380 -381 865 -620 1398 -690 104 -13 441 -15 2803 -15 1820 0
2716 3 2782 11 991 108 1827 847 2077 1836 63 251 58 20 62 2998 3 1894 1
2745 -7 2825 -55 590 -364 1187 -816 1578 -288 251 -642 437 -1000 528 -296
75 -26 68 -3044 70 -1488 0 -2725 -1 -2750 -3z m5490 -446 c614 -114 1102
-443 1428 -963 144 -231 243 -488 295 -769 l22 -120 3 -2566 c1 -1411 -1
-2588 -5 -2617 l-8 -51 -105 68 c-286 188 -593 353 -871 471 -77 33 -142 60
-144 60 -2 0 -16 5 -31 10 -26 10 -22 13 83 65 430 211 746 671 829 1205 20
130 19 397 -2 519 -72 427 -289 757 -615 935 -77 42 -205 91 -267 101 -43 7
-44 8 -38 39 3 17 10 68 17 112 l11 82 89 11 c338 43 652 268 808 579 82 164
128 379 117 557 -33 579 -488 1025 -1046 1025 -701 0 -1200 -673 -1020 -1375
29 -114 126 -304 203 -401 112 -140 273 -260 432 -321 38 -15 72 -28 74 -29 4
-3 -26 -222 -36 -261 -4 -16 -17 -26 -47 -34 -81 -21 -196 -90 -274 -164 -139
-131 -205 -281 -206 -465 0 -114 16 -184 61 -274 34 -67 119 -154 186 -191
l55 -29 -1 -57 c-2 -44 3 -64 19 -85 32 -44 68 -66 117 -71 70 -8 113 4 151
42 29 29 37 46 47 110 12 71 15 76 52 101 51 34 92 119 82 171 -6 34 -38 76
-63 84 -10 3 -9 23 2 88 8 46 17 86 21 89 3 3 33 -22 66 -57 52 -56 59 -67 54
-92 -7 -32 16 -122 46 -178 31 -57 26 -162 -15 -324 -37 -148 -80 -240 -148
-323 -98 -118 -198 -176 -315 -182 -108 -6 -156 19 -268 144 -123 134 -177
186 -265 253 -145 109 -300 174 -535 226 -215 46 -314 85 -410 158 -153 116
-233 306 -221 522 9 175 48 290 190 559 l84 158 17 -78 c9 -44 35 -117 57
-164 92 -193 306 -335 537 -356 93 -9 102 3 73 94 -30 97 -32 111 -42 256 -5
81 -17 156 -29 196 -12 36 -21 66 -21 66 0 1 44 4 98 6 110 5 220 38 312 92
78 46 80 72 6 120 -61 41 -96 82 -183 211 -70 104 -139 172 -211 209 -61 31
-159 56 -222 56 l-45 0 3 73 c2 44 -2 88 -11 113 -11 34 -11 46 0 80 53 152
69 470 33 679 -95 555 -494 1011 -1049 1195 -238 80 -484 110 -725 91 -633
-51 -1165 -352 -1496 -845 -67 -101 -161 -295 -200 -416 -32 -99 -70 -270 -70
-314 0 -14 -15 -46 -34 -70 -56 -73 -71 -127 -70 -241 6 -409 8 -449 30 -495
12 -25 38 -62 58 -83 20 -21 36 -40 36 -42 0 -2 -18 -30 -40 -61 -99 -142
-112 -330 -35 -502 l26 -59 -17 -84 c-38 -186 9 -443 106 -579 17 -24 20 -43
20 -142 0 -195 -44 -301 -180 -439 -120 -121 -256 -198 -445 -250 -61 -16
-118 -23 -240 -26 -140 -4 -171 -2 -250 16 -279 67 -464 268 -491 533 -6 60
-3 72 22 124 21 43 29 75 31 125 2 63 23 129 41 129 4 0 24 -102 45 -227 21
-126 44 -238 53 -251 41 -63 142 -81 224 -40 82 43 93 75 76 228 l-8 75 40 23
c79 44 159 158 188 267 16 59 18 182 3 245 -36 159 -171 311 -324 366 l-60 22
-17 93 c-9 52 -18 116 -20 142 l-3 48 70 28 c147 60 270 145 386 269 162 174
262 395 290 642 21 187 -22 412 -114 595 -73 146 -226 320 -360 409 -196 129
-450 192 -671 166 -558 -65 -965 -520 -966 -1078 0 -296 101 -550 304 -760
182 -188 387 -287 658 -317 65 -7 61 -2 78 -120 6 -44 13 -87 16 -96 4 -13
-11 -22 -68 -39 -357 -107 -663 -425 -798 -830 -60 -178 -73 -266 -74 -485 -1
-175 2 -213 22 -305 72 -322 210 -579 426 -796 176 -176 350 -285 589 -368 18
-6 18 -7 0 -37 -15 -25 -35 -36 -113 -63 -376 -130 -829 -357 -1175 -589
l-100 -67 -8 52 c-4 29 -6 1204 -5 2612 l3 2561 23 125 c142 792 691 1429
1433 1665 123 39 270 71 389 84 41 5 1270 8 2730 7 2487 -1 2661 -2 2750 -19z
m-2721 -618 c-140 -11 -312 -46 -479 -96 -13 -4 -13 -3 0 5 54 35 381 100 500
100 l75 -1 -96 -8z m451 -14 c94 -18 202 -46 197 -51 -2 -2 -37 3 -78 11 -174
36 -239 47 -324 55 l-90 9 105 -4 c58 -2 143 -11 190 -20z m-347 -42 c-7 -2
-19 -2 -25 0 -7 3 -2 5 12 5 14 0 19 -2 13 -5z m422 -3 l30 -8 -30 0 c-16 0
-50 3 -75 7 l-45 8 45 1 c25 0 59 -4 75 -8z m272 -57 c51 -20 92 -38 90 -39
-5 -5 -181 56 -191 66 -17 17 6 11 101 -27z m-1312 7 c-27 -12 -43 -12 -25 0
8 5 22 9 30 9 10 0 8 -3 -5 -9z m-143 -60 c-57 -27 -129 -63 -160 -80 -31 -18
-48 -24 -37 -15 25 20 275 145 289 144 6 0 -35 -22 -92 -49z m-223 -114 c-2
-2 -42 -32 -89 -67 -215 -158 -364 -325 -494 -554 -25 -44 -46 -75 -46 -69 0
18 120 213 175 284 85 112 205 229 328 321 65 49 120 89 124 89 3 0 4 -2 2 -4z
m-2194 -451 c169 -47 347 -165 454 -302 119 -152 179 -312 188 -500 14 -274
-78 -507 -273 -694 -115 -109 -218 -169 -371 -216 -77 -23 -106 -26 -228 -27
-115 0 -155 4 -224 22 -158 43 -301 130 -416 254 -204 220 -282 548 -200 833
32 108 64 179 116 257 136 203 328 335 559 384 86 18 313 12 395 -11z m6569
-115 c569 -145 835 -821 523 -1331 -117 -191 -307 -333 -522 -390 -95 -25
-286 -30 -380 -10 -326 71 -584 325 -667 658 -31 126 -31 314 1 433 111 412
470 685 877 664 51 -2 126 -13 168 -24z m-5038 -221 c-14 -30 -25 -50 -25 -46
-1 12 41 108 45 104 3 -2 -7 -28 -20 -58z m1629 -44 c72 -8 171 -21 220 -30
461 -81 875 -267 1135 -512 110 -103 171 -180 212 -269 28 -59 30 -72 26 -137
-5 -64 -43 -187 -58 -187 -3 0 -14 15 -25 33 -34 58 -79 108 -141 158 -34 27
-65 49 -69 49 -4 0 16 -25 44 -56 92 -101 141 -186 155 -269 8 -50 -15 -144
-51 -205 -26 -44 -26 -44 -36 -20 -25 67 -48 101 -112 165 -227 227 -657 414
-1137 494 -475 79 -946 63 -1385 -49 -304 -78 -522 -188 -595 -300 l-16 -25
-12 30 c-17 41 -25 192 -12 239 8 27 8 45 0 64 -6 15 -11 79 -12 142 -1 138
12 169 108 266 221 221 655 379 1176 428 105 9 469 4 585 -9z m-1684 -111
c-16 -49 -29 -84 -30 -77 -1 17 49 176 55 171 2 -3 -9 -45 -25 -94z m-23 -134
c4 0 22 9 40 20 48 30 39 17 -18 -24 -53 -38 -59 -34 -43 24 7 24 8 25 11 3 2
-13 6 -23 10 -23z m3572 -878 c78 -31 160 -108 239 -226 38 -56 92 -123 120
-150 29 -26 49 -52 44 -56 -21 -19 -145 -59 -216 -70 -95 -14 -183 0 -206 34
-40 57 -138 147 -206 187 l-76 44 6 45 c4 25 8 46 10 48 7 8 135 -22 190 -44
l60 -24 -36 34 c-39 37 -132 76 -180 76 -17 0 -29 3 -27 8 2 4 16 33 31 66
l28 58 82 -4 c52 -3 103 -12 137 -26z m-1533 -28 c-3 -3 -12 -4 -19 -1 -8 3
-5 6 6 6 11 1 17 -2 13 -5z m-183 -19 c-99 -27 -216 -90 -289 -155 l-70 -62
65 64 c94 91 239 167 320 167 14 0 3 -6 -26 -14z m287 -1 c30 -9 50 -18 44
-20 -5 -2 -37 5 -70 16 -73 23 -51 27 26 4z m-44 -30 c-3 -3 -12 -4 -19 -1 -8
3 -5 6 6 6 11 1 17 -2 13 -5z m-1652 -59 c28 -13 66 -38 85 -56 31 -27 29 -27
-20 7 -30 21 -82 49 -115 61 -33 13 -46 21 -30 18 17 -3 53 -17 80 -30z m-344
5 c-24 -11 -46 -18 -49 -15 -6 6 57 34 78 34 8 0 -5 -8 -29 -19z m2269 -64
c17 -22 18 -26 5 -15 -11 9 -25 15 -31 12 -6 -2 -19 7 -29 19 -11 13 -13 17
-5 11 26 -24 34 -13 9 14 l-24 26 25 -18 c14 -10 36 -32 50 -49z m-2400 -23
c-24 -27 -47 -52 -52 -57 -4 -6 -8 -7 -8 -3 0 9 90 107 98 107 2 0 -15 -21
-38 -47z m621 -20 c13 -16 12 -17 -3 -4 -10 7 -18 15 -18 17 0 8 8 3 21 -13z
m2766 -138 c151 -112 241 -301 243 -502 0 -47 21 -179 36 -225 5 -17 2 -19
-33 -12 -21 4 -73 19 -117 35 -238 86 -363 264 -392 561 l-6 67 37 18 38 18
41 -47 c22 -26 65 -90 95 -143 30 -52 55 -94 57 -92 2 1 -3 27 -11 57 -17 67
-76 185 -114 231 l-28 33 19 38 c19 36 21 37 47 24 15 -8 55 -35 88 -61z
m-3484 -7 c-6 -39 -5 -42 10 -29 15 12 15 9 1 -40 -17 -59 -23 -70 -25 -48 -1
8 -5 -2 -10 -21 -6 -27 -7 -20 -5 30 3 58 23 150 33 150 2 0 0 -19 -4 -42z
m1567 22 c-13 -24 2 -27 24 -5 38 38 17 -4 -34 -67 -8 -11 -5 66 4 80 12 20
17 13 6 -8z m-45 -127 c-5 -10 -9 -21 -9 -25 -2 -12 -16 -21 -16 -10 0 16 22
63 28 57 2 -2 1 -12 -3 -22z m610 12 c183 -47 291 -217 302 -477 4 -85 3 -118
-6 -118 -6 0 -11 17 -12 38 -1 82 -61 177 -133 211 -128 62 -268 -7 -344 -169
-32 -67 -36 -86 -40 -182 -4 -84 -1 -119 13 -160 26 -80 67 -132 127 -162 60
-30 88 -32 149 -11 l44 15 -25 -21 c-90 -76 -234 -100 -343 -59 -167 63 -279
290 -264 535 20 316 213 561 452 574 12 1 48 -6 80 -14z m-1661 -51 c117 -45
212 -186 251 -373 12 -62 12 -65 -3 -41 -56 83 -128 130 -202 130 -41 0 -122
-46 -154 -87 -74 -92 -103 -245 -72 -378 43 -180 170 -278 301 -229 32 12 -56
-56 -95 -73 -19 -9 -62 -16 -95 -16 -153 -3 -284 120 -356 333 -30 87 -33 106
-33 220 -1 192 48 335 148 435 97 97 196 122 310 79z m-487 -56 c-3 -8 -6 -5
-6 6 -1 11 2 17 5 13 3 -3 4 -12 1 -19z m-1419 -175 c-10 -2 -28 -2 -40 0 -13
2 -5 4 17 4 22 1 32 -1 23 -4z m149 1 c-3 -3 -12 -4 -19 -1 -8 3 -5 6 6 6 11
1 17 -2 13 -5z m-224 -11 c-7 -2 -19 -2 -25 0 -7 3 -2 5 12 5 14 0 19 -2 13
-5z m306 -4 c48 -17 32 -20 -19 -4 -25 7 -38 14 -29 14 9 1 30 -4 48 -10z
m-352 -5 c-3 -3 -12 -4 -19 -1 -8 3 -5 6 6 6 11 1 17 -2 13 -5z m-128 -38
c-10 -9 -109 -56 -109 -51 0 6 91 54 104 55 5 0 7 -2 5 -4z m607 -27 c3 -6 -5
-3 -20 6 -14 10 -26 19 -26 22 0 7 39 -17 46 -28z m5912 -36 c-10 -2 -26 -2
-35 0 -10 3 -2 5 17 5 19 0 27 -2 18 -5z m-75 -10 c-7 -2 -19 -2 -25 0 -7 3
-2 5 12 5 14 0 19 -2 13 -5z m264 1 c-3 -3 -12 -4 -19 -1 -8 3 -5 6 6 6 11 1
17 -2 13 -5z m-310 -10 c-3 -3 -12 -4 -19 -1 -8 3 -5 6 6 6 11 1 17 -2 13 -5z
m-6597 -28 c0 -2 -8 -10 -17 -17 -16 -13 -17 -12 -4 4 13 16 21 21 21 13z
m4140 -16 c44 -44 33 -118 -22 -146 -53 -28 -108 12 -108 78 0 73 82 116 130
68z m-1661 -14 c15 -16 23 -37 23 -61 0 -93 -113 -118 -141 -32 -29 87 59 156
118 93z m3981 9 c0 -2 -18 -14 -39 -25 -22 -11 -68 -45 -103 -77 -57 -52 -59
-52 -18 -9 57 60 160 132 160 111z m-6500 -8 c0 -2 -10 -12 -22 -23 l-23 -19
19 23 c18 21 26 27 26 19z m-102 -94 c-30 -32 -73 -84 -97 -115 -52 -69 -66
-78 -19 -12 35 50 156 184 165 184 4 0 -19 -26 -49 -57z m2829 -100 c-3 -10
-5 -4 -5 12 0 17 2 24 5 18 2 -7 2 -21 0 -30z m-2382 -7 c-16 -13 -27 -28 -22
-32 4 -4 7 -3 7 3 0 6 7 14 16 17 8 3 12 2 9 -3 -3 -5 -1 -12 4 -15 5 -4 12
-2 16 4 3 5 11 10 17 10 6 0 -1 -11 -16 -25 -34 -32 -34 -49 1 -42 26 5 26 4
8 -9 -11 -7 -26 -18 -33 -25 -18 -15 -59 -3 -67 21 -9 27 22 88 54 105 38 21
40 18 6 -9z m-85 -11 c-15 -16 -24 -38 -24 -58 0 -31 -1 -32 -37 -29 -20 2
-47 -2 -60 -8 l-24 -13 24 27 c24 25 49 37 36 16 -3 -6 1 -7 10 -3 12 4 13 8
4 13 -8 5 4 20 37 44 58 42 66 45 34 11z m5977 -57 c-11 -28 -23 -46 -25 -40
-3 10 34 92 43 92 2 0 -6 -23 -18 -52z m-3520 -10 c-3 -8 -6 -5 -6 6 -1 11 2
17 5 13 3 -3 4 -12 1 -19z m-2257 -35 c0 -7 -18 -29 -40 -49 -22 -20 -42 -46
-46 -57 -6 -19 -8 -18 -19 9 -13 31 -10 48 5 24 7 -12 17 -7 49 24 33 32 39
45 35 65 -4 20 -3 23 5 11 6 -8 11 -20 11 -27z m6513 23 c18 -7 45 -28 60 -45
27 -32 36 -71 17 -71 -5 0 -7 -7 -4 -15 4 -8 -1 -26 -10 -40 -14 -21 -25 -25
-61 -25 -40 0 -50 5 -95 48 -41 40 -50 54 -50 83 0 39 7 51 35 67 27 15 69 15
108 -2z m-4272 -73 c-14 -55 -62 -153 -97 -200 -28 -37 -31 -51 -7 -32 13 11
13 8 -2 -12 -12 -16 -23 -23 -27 -16 -4 6 -18 0 -38 -17 -36 -30 -102 -66
-121 -66 -7 0 15 14 48 30 106 53 189 165 229 309 20 71 32 74 15 4z m4484
-33 l30 -25 -56 -1 -57 -1 -4 36 c-3 20 -9 45 -13 55 -7 16 -1 14 31 -9 21
-16 53 -41 69 -55z m-6912 26 c14 -13 29 -36 33 -51 13 -51 -3 -145 -35 -210
-55 -111 -132 -156 -202 -119 -19 10 -38 18 -43 19 -5 0 -18 13 -30 28 -42 56
-19 193 44 275 63 81 178 109 233 58z m6952 -115 c105 -47 171 -209 130 -317
-9 -25 -27 -50 -39 -55 -11 -6 -34 -17 -49 -26 -84 -45 -207 94 -223 254 -14
130 68 196 181 144z m-6859 -70 c-11 -68 -27 -110 -52 -141 -42 -49 -44 -34
-7 39 22 43 38 89 41 121 4 41 7 49 14 35 6 -9 8 -34 4 -54z m5821 37 c-3 -8
-6 -5 -6 6 -1 11 2 17 5 13 3 -3 4 -12 1 -19z m816 -29 c-3 -11 -6 -18 -7 -17
-1 2 -7 10 -13 18 -10 13 -8 16 6 17 14 1 17 -4 14 -18z m-7022 -209 c18 -19
28 -35 23 -37 -31 -11 -78 -48 -92 -74 -37 -66 -40 -66 -31 2 15 103 31 179
39 174 3 -2 5 10 3 28 -2 27 0 25 12 -13 8 -25 29 -61 46 -80z m2099 -60 c-16
-60 -23 -43 -8 21 7 30 14 46 16 37 2 -9 -2 -35 -8 -58z m-1790 9 c0 -40 -3
-48 -22 -53 -13 -3 -27 0 -33 6 -7 8 -6 9 2 4 23 -13 43 6 43 40 0 29 -3 34
-25 34 -30 0 -50 -31 -32 -50 7 -7 -1 -5 -16 5 l-28 18 27 22 c15 12 40 22 56
21 26 -1 28 -3 28 -47z m7130 13 c0 -16 -6 -37 -14 -47 -11 -16 -12 -12 -2 28
12 54 16 58 16 19z m-7259 -54 c84 -56 127 -244 79 -343 -41 -84 -119 -109
-182 -57 -18 15 -34 30 -36 35 -2 4 -8 7 -13 7 -15 0 12 -47 35 -59 19 -10 18
-11 -9 -6 -94 19 -160 181 -125 307 32 113 163 174 251 116z m7303 -113 l14
-79 -34 40 c-18 23 -47 47 -64 54 l-31 13 35 23 c19 13 38 34 42 46 7 22 7 22
15 3 5 -11 15 -56 23 -100z m-287 35 c19 0 17 -3 -29 -51 -24 -24 -47 -52 -53
-62 -7 -13 -10 9 -10 81 l0 99 39 -33 c22 -19 46 -34 53 -34z m167 15 c-4 -8
-11 -15 -16 -15 -6 0 -5 6 2 15 7 8 14 15 16 15 2 0 1 -7 -2 -15z m-7031 -23
c18 -20 47 -121 47 -164 0 -28 -33 -102 -42 -93 -2 3 -12 -11 -21 -30 -20 -41
-7 -46 22 -9 l20 25 28 -53 c15 -29 29 -56 31 -60 2 -4 -21 6 -50 22 -29 16
-61 30 -70 30 -23 0 -23 1 5 47 19 32 22 52 21 128 0 61 -6 103 -17 129 -9 21
-17 40 -17 42 0 11 29 2 43 -14z m7037 -50 c55 -22 101 -100 99 -169 0 -29 -2
-33 -8 -18 l-8 20 -5 -20 c-2 -11 -8 13 -12 53 -6 56 -13 78 -32 100 l-25 27
23 -45 c18 -36 22 -61 21 -125 0 -44 -8 -102 -16 -130 -13 -40 -13 -46 -2 -30
8 11 23 29 34 40 10 11 22 29 25 40 3 11 3 0 0 -24 -12 -111 -101 -201 -196
-201 -123 0 -183 97 -158 256 11 73 56 179 89 208 46 42 98 47 171 18z m-5344
-9 c-8 -16 -22 -37 -31 -48 -16 -19 -17 -19 -3 5 8 14 20 35 27 48 6 12 14 22
17 22 2 0 -2 -12 -10 -27z m-94 -130 c-37 -46 -74 -81 -127 -118 -33 -23 -31
-21 10 15 28 24 70 66 95 92 53 57 63 62 22 11z m-1918 -188 c24 -14 51 -25
60 -25 9 0 14 -4 11 -10 -6 -10 -76 20 -107 47 -9 8 -21 12 -26 9 -5 -3 -14
11 -20 32 l-12 37 26 -33 c14 -17 45 -43 68 -57z m7042 -23 c-13 -12 -17 8
-10 40 l9 33 3 -33 c2 -19 1 -36 -2 -40z m-5345 28 c-22 -19 -41 -26 -41 -15
0 5 51 34 60 34 3 0 -6 -9 -19 -19z m-1387 -14 c46 -19 112 -80 143 -133 52
-90 37 -209 -32 -242 -16 -8 -43 -21 -58 -29 -70 -35 -191 13 -248 98 -47 69
-58 130 -37 191 36 104 138 154 232 115z m5586 -12 c0 -2 -9 0 -20 6 -11 6
-20 13 -20 16 0 2 9 0 20 -6 11 -6 20 -13 20 -16z m-5920 -19 c16 -8 41 -15
55 -15 24 0 25 -2 14 -22 -7 -13 -15 -52 -18 -88 l-6 -65 -42 106 c-24 59 -43
111 -42 115 0 5 3 3 6 -4 3 -7 18 -19 33 -27z m4855 -15 c10 -11 16 -20 13
-20 -3 0 -13 9 -23 20 -10 11 -16 20 -13 20 3 0 13 -9 23 -20z m-2545 -24 c0
-2 -8 -10 -17 -17 -16 -13 -17 -12 -4 4 13 16 21 21 21 13z m2720 -114 c27
-27 -81 52 -119 86 -20 18 -4 10 34 -19 39 -29 77 -59 85 -67z m2433 73 c-3
-9 -8 -14 -10 -11 -3 3 -2 9 2 15 9 16 15 13 8 -4z m-5238 -56 c-33 -33 -73
-70 -90 -81 -16 -12 8 15 55 60 47 45 87 81 90 82 2 0 -22 -27 -55 -61z m4808
34 c-4 -11 -3 -14 5 -9 7 4 12 3 12 -3 0 -5 -5 -13 -10 -16 -6 -4 -8 -10 -5
-15 3 -4 -12 -18 -33 -29 l-37 -21 30 26 c18 16 23 24 12 20 -10 -3 -16 -2
-15 2 21 44 33 62 39 62 5 0 5 -7 2 -17z m107 -18 c11 -13 8 -15 -21 -14 -19
1 -26 3 -16 6 9 2 17 9 17 14 0 13 6 11 20 -6z m281 -111 c-16 -43 -37 -97
-47 -119 l-18 -40 -7 57 c-3 31 -16 73 -27 92 l-21 36 25 0 c27 0 99 33 109
51 19 30 12 -7 -14 -77z m-6804 5 l31 -27 -34 -7 c-20 -3 -41 -8 -47 -11 -8
-3 -12 11 -12 45 0 54 -3 54 62 0z m5538 31 c10 -11 16 -20 13 -20 -3 0 -13 9
-23 20 -10 11 -16 20 -13 20 3 0 13 -9 23 -20z m1062 -9 c26 -16 33 -28 39
-67 20 -134 -78 -297 -223 -369 -47 -23 -47 -24 -17 -24 40 -1 100 19 85 29
-7 4 14 31 55 70 48 46 68 60 74 50 6 -9 14 -2 29 26 24 46 29 28 5 -19 -23
-45 -92 -115 -137 -138 -64 -33 -123 -35 -190 -5 -47 21 -61 32 -73 63 -46
109 44 296 180 373 62 36 125 40 173 11z m-2076 -28 c13 -16 12 -17 -3 -4 -10
7 -18 15 -18 17 0 8 8 3 21 -13z m-3041 -7 c0 -3 -15 -14 -32 -26 l-33 -22 30
26 c31 27 35 29 35 22z m3081 -23 c13 -16 12 -17 -3 -4 -10 7 -18 15 -18 17 0
8 8 3 21 -13z m2108 -23 c5 -17 6 -28 2 -25 -5 3 -14 19 -20 35 -5 17 -6 28
-2 25 5 -3 14 -19 20 -35z m-1974 -91 c11 -13 -10 3 -47 36 -38 32 -68 60 -68
63 0 6 93 -73 115 -99z m-3293 78 c-6 -7 -30 -23 -54 -36 -52 -29 -43 -17 15
21 48 31 53 33 39 15z m-1222 -41 c94 -48 150 -113 150 -176 0 -40 -42 -123
-73 -143 -14 -9 -38 -19 -53 -22 -27 -6 -28 -5 -8 7 12 7 19 18 17 25 -2 6 9
14 26 18 16 3 36 13 43 22 11 14 8 13 -21 -1 -26 -14 -52 -17 -111 -14 -64 2
-89 9 -151 40 -51 25 -66 30 -48 15 16 -14 26 -31 24 -45 -2 -26 28 -46 88
-57 20 -4 40 -11 43 -17 7 -11 -33 -2 -105 25 -64 23 -126 83 -142 137 -13 43
0 116 27 158 44 67 189 80 294 28z m5520 -23 c0 -7 -39 17 -46 28 -3 6 5 3 20
-6 14 -10 26 -19 26 -22z m-2501 -14 c36 -6 67 -13 69 -14 1 -1 -11 -24 -28
-51 l-30 -49 -93 -3 c-115 -4 -295 -34 -389 -66 -70 -23 -73 -23 -112 -6 -54
23 -164 50 -204 50 -72 0 -12 46 109 85 86 27 204 52 306 65 81 10 281 4 372
-11z m-1919 5 c0 -6 -164 -84 -176 -83 -5 0 32 20 81 44 106 51 95 46 95 39z
m-855 -50 c22 -6 32 -12 22 -13 -10 -1 -29 -8 -43 -17 -13 -9 -26 -15 -27 -13
-1 2 -12 19 -25 37 l-23 33 28 -7 c15 -4 46 -13 68 -20z m4376 -56 c35 -40 48
-59 30 -43 -37 34 -122 133 -105 122 7 -4 40 -39 75 -79z m-5187 57 c11 -8 18
-17 15 -19 -2 -3 -15 4 -29 14 -14 11 -20 20 -15 19 6 0 19 -6 29 -14z m188
-39 c-5 -40 13 -99 41 -140 l20 -28 -24 12 c-41 21 -143 96 -164 121 -11 12
-14 19 -7 15 7 -4 37 -4 67 -1 49 7 55 10 55 31 0 13 4 24 8 24 4 0 6 -15 4
-34z m-29 17 c-7 -2 -21 -2 -30 0 -10 3 -4 5 12 5 17 0 24 -2 18 -5z m1297
-27 c-14 -7 -36 -16 -50 -20 -14 -3 -7 3 15 13 45 22 73 27 35 7z m-403 -18
c16 -16 14 -18 -28 -37 -37 -17 -45 -18 -52 -5 -19 34 -118 -1 -115 -42 2 -16
7 -20 23 -17 11 3 -2 -9 -30 -26 l-50 -30 -14 26 c-9 19 -11 37 -5 67 8 35 15
44 54 64 38 20 57 23 122 20 57 -2 82 -8 95 -20z m313 -18 c-8 -5 -19 -10 -25
-10 -5 0 -3 5 5 10 8 5 20 10 25 10 6 0 3 -5 -5 -10z m-75 -29 c-47 -21 -92
-36 -85 -28 7 8 103 46 115 46 6 0 -8 -8 -30 -18z m5283 -56 c-2 -1 -18 0 -36
2 l-33 5 28 30 28 29 8 -32 c4 -17 7 -32 5 -34z m-2905 20 c152 -91 367 -282
367 -325 0 -46 -32 -238 -56 -334 -13 -54 -24 -100 -24 -101 0 -1 -52 -44
-116 -95 l-115 -93 -132 12 c-73 6 -199 16 -281 21 -125 8 -150 12 -161 27 -8
10 -76 106 -153 213 l-140 195 25 70 c31 87 135 300 165 338 39 47 294 103
483 106 75 1 84 -1 138 -34z m-827 5 c43 -11 98 -27 121 -36 l41 -16 -53 -102
c-30 -55 -68 -137 -85 -181 -56 -145 -42 -131 -168 -174 -61 -22 -169 -65
-238 -97 -103 -47 -128 -55 -135 -43 -32 49 -80 129 -94 160 -17 35 -16 37 9
86 69 138 236 296 411 390 71 38 87 39 191 13z m2425 -7 c13 -16 12 -17 -3 -4
-10 7 -18 15 -18 17 0 8 8 3 21 -13z m-4081 -3 c-8 -5 -19 -10 -25 -10 -5 0
-3 5 5 10 8 5 20 10 25 10 6 0 3 -5 -5 -10z m-41 -14 c-10 -10 -233 -117 -224
-108 12 12 206 111 219 112 5 0 7 -2 5 -4z m5402 -46 c113 -31 123 -203 16
-284 -37 -28 -114 -65 -137 -66 -8 0 13 13 46 29 68 32 77 40 64 61 -11 17 34
54 56 46 16 -6 34 29 34 67 0 17 -6 13 -30 -20 -71 -96 -241 -159 -355 -130
-26 6 -28 6 -10 -5 23 -14 25 -14 79 -16 32 -2 36 -4 27 -16 -9 -11 -9 -15 1
-20 7 -3 -6 -4 -30 -2 -24 2 -53 13 -64 23 -33 29 -68 90 -68 119 0 85 97 172
233 209 63 17 91 18 138 5z m-5830 -33 l-24 -22 19 27 c10 14 21 24 23 22 3
-3 -6 -15 -18 -27z m39 -1 c0 -3 -15 -14 -32 -26 l-33 -22 30 26 c31 27 35 29
35 22z m6160 -31 c0 -2 -10 -9 -22 -15 -22 -11 -22 -10 -4 4 21 17 26 19 26
11z m-6011 -9 c-12 -12 -159 -105 -159 -101 0 6 150 105 158 105 3 0 3 -2 1
-4z m5872 -34 c-7 -2 -25 1 -41 7 -17 5 -30 6 -30 1 0 -10 56 -30 87 -30 13 0
38 7 56 15 31 16 31 15 -8 -21 -49 -45 -171 -137 -204 -154 -22 -11 -21 -9 7
26 36 45 56 114 48 159 l-6 32 51 -16 c28 -8 46 -17 40 -19z m-6146 8 c-3 -5
-18 -10 -33 -9 l-27 1 25 8 c35 11 42 11 35 0z m105 -83 c0 -2 -10 -12 -22
-23 l-23 -19 19 23 c18 21 26 27 26 19z m-128 -117 c-45 -44 -109 -115 -143
-157 -90 -114 -96 -112 -10 2 42 56 217 235 229 235 3 0 -31 -36 -76 -80z
m1488 35 c-7 -9 -15 -13 -17 -11 -7 7 7 26 19 26 6 0 6 -6 -2 -15z m2321 -11
c59 -13 73 -21 111 -62 62 -66 126 -164 155 -235 80 -197 104 -472 45 -528 -9
-10 -70 -38 -136 -64 -98 -39 -120 -45 -131 -34 -37 42 -366 392 -407 435
l-49 51 35 174 c19 96 38 197 42 226 5 42 11 53 28 57 38 9 238 -4 307 -20z
m-2351 1 c0 -6 -76 -45 -87 -45 -4 1 12 12 37 25 50 27 50 27 50 20z m-150
-75 c-8 -5 -19 -10 -25 -10 -5 0 -3 5 5 10 8 5 20 10 25 10 6 0 3 -5 -5 -10z
m-45 -20 c-3 -5 1 -10 9 -10 8 0 17 -4 20 -9 4 -5 -10 -4 -30 2 -30 9 -33 12
-18 18 26 10 26 10 19 -1z m134 -37 c-29 -49 -29 -49 -29 -31 0 15 36 68 47
68 2 0 -6 -17 -18 -37z m192 -45 c12 -24 41 -74 64 -113 l43 -70 -14 -70 c-8
-39 -17 -158 -21 -265 l-6 -195 -36 -40 c-43 -47 -117 -150 -157 -219 l-28
-49 -57 61 c-55 60 -57 65 -69 144 -34 214 31 584 129 745 17 26 113 113 127
113 2 0 13 -19 25 -42z m-427 7 c-81 -14 -105 -25 -154 -69 l-35 -31 35 38
c40 44 117 76 180 76 41 -1 38 -2 -26 -14z m134 -21 c30 -24 34 -31 29 -63 -2
-20 -15 -59 -28 -86 -21 -45 -32 -54 -99 -88 -77 -39 -153 -51 -208 -33 -23 8
-52 53 -52 81 0 27 89 113 135 131 24 9 46 23 49 31 4 9 13 12 25 8 11 -3 22
-1 26 5 10 16 38 12 31 -5 -3 -8 -2 -15 2 -16 28 -3 46 -10 61 -23 24 -22 51
-20 51 2 0 25 -19 48 -55 67 -16 8 -24 15 -16 15 8 0 30 -12 49 -26z m-352
-46 c-20 -23 -41 -60 -47 -82 -5 -23 -11 -45 -12 -49 -1 -4 -16 6 -32 24 -29
31 -29 31 -3 15 l26 -17 12 35 c6 19 20 46 31 60 24 31 26 31 -46 6 -32 -11
-60 -18 -62 -16 -2 2 34 17 79 33 46 17 84 31 86 32 2 0 -13 -18 -32 -41z
m-46 -28 c0 -6 -7 -13 -15 -16 -8 -4 -12 -11 -8 -17 3 -5 1 -7 -5 -4 -14 9 -3
47 14 47 8 0 14 -5 14 -10z m-114 -15 c-8 -8 -25 -15 -38 -15 -21 1 -20 2 7
15 40 18 50 18 31 0z m29 -25 c3 -6 -1 -7 -9 -4 -18 7 -21 14 -7 14 6 0 13 -4
16 -10z m-1 -69 c73 -68 67 -141 -17 -226 -92 -91 -233 -138 -306 -100 -41 20
-75 91 -65 132 22 93 130 204 181 187 14 -5 15 -4 4 4 -23 16 42 32 116 29 49
-2 68 -8 87 -26z m-1119 -77 c-14 -31 -25 -59 -25 -62 0 -3 -2 -3 -5 0 -6 5
42 118 50 118 2 0 -6 -25 -20 -56z m723 -21 c-25 -29 -41 -92 -36 -143 l5 -48
-28 10 c-37 13 -129 -6 -163 -33 -14 -11 -26 -17 -26 -13 0 18 102 124 175
181 82 65 99 76 73 46z m517 -3 c10 -11 16 -20 13 -20 -3 0 -13 9 -23 20 -10
11 -16 20 -13 20 3 0 13 -9 23 -20z m316 -16 c-9 -35 -33 -48 -128 -70 -59
-14 -75 -15 -87 -5 -26 22 -2 51 42 51 20 1 69 13 107 29 39 15 71 27 72 26 1
0 -1 -14 -6 -31z m3928 -62 c-8 -3 -33 -13 -56 -23 l-43 -18 0 60 0 59 56 -37
c32 -21 50 -39 43 -41z m-4261 43 c-1 -14 -6 -25 -11 -25 -5 0 -6 7 -3 16 3 9
6 20 6 25 0 5 2 9 5 9 3 0 4 -11 3 -25z m67 -3 c-3 -3 -11 0 -18 7 -9 10 -8
11 6 5 10 -3 15 -9 12 -12z m-91 -98 c8 -20 -5 -42 -41 -74 -21 -19 -23 -20
-10 -3 12 14 15 23 7 28 -5 3 -7 12 -3 18 4 6 -16 -6 -44 -28 -28 -22 -50 -44
-49 -50 0 -5 -7 -9 -16 -7 -12 2 -16 -2 -12 -13 5 -13 12 -12 50 9 25 14 42
21 39 16 -12 -19 -116 -71 -137 -68 -44 6 -32 34 27 62 30 15 79 50 108 76 56
53 71 59 81 34z m4392 -13 c60 -27 114 -80 140 -136 25 -52 31 -105 14 -105
-5 0 -10 -9 -10 -20 0 -35 -28 -77 -60 -90 -74 -31 -202 33 -272 137 -24 35
-25 43 -19 113 l6 75 45 23 c54 27 101 28 156 3z m-2456 -11 c140 -11 262 -23
271 -25 21 -7 121 -219 167 -355 31 -91 36 -121 40 -225 l4 -121 -84 -79 c-46
-44 -131 -116 -187 -159 -95 -72 -107 -79 -146 -78 -102 4 -457 82 -482 106
-35 33 -186 384 -199 462 -6 40 -3 44 137 230 169 224 201 264 214 264 6 0
125 -9 265 -20z m-2421 -87 c40 -30 55 -86 42 -157 -20 -114 -88 -218 -166
-256 -50 -24 -103 -22 -126 6 -7 9 -24 20 -37 25 -34 13 -55 73 -49 140 10
113 96 228 193 259 43 14 113 5 143 -17z m191 -43 c0 -3 -12 -13 -25 -23 -20
-14 -24 -15 -19 -2 5 11 -1 15 -19 15 -22 0 -26 -5 -29 -32 -3 -32 -4 -32 -8
7 l-5 40 53 0 c28 0 52 -2 52 -5z m4950 -85 c15 -22 40 -62 55 -89 l29 -50
-31 24 c-20 14 -51 25 -83 28 -37 3 -48 8 -41 16 17 20 23 89 11 121 l-11 29
22 -19 c12 -11 34 -38 49 -60z m-5009 -52 c8 -22 4 -38 -25 -100 -39 -81 -75
-123 -106 -123 -25 0 -25 5 0 40 20 28 51 92 84 173 18 44 33 47 47 10z m3599
3 c0 -42 -49 -199 -89 -283 -47 -97 -96 -175 -164 -262 l-51 -63 -34 68 -35
68 23 71 c13 38 37 126 55 195 l31 125 70 25 c38 15 94 38 124 52 69 33 70 33
70 4z m1068 -96 c43 -24 50 -34 31 -46 -31 -19 -159 60 -174 108 -13 39 17 39
60 -1 22 -20 59 -48 83 -61z m-3428 34 c47 -20 150 -58 229 -84 l144 -49 47
-128 c26 -70 72 -181 103 -247 41 -86 54 -123 48 -135 -8 -14 -11 -12 -19 10
-6 14 -25 38 -43 53 -29 25 -40 28 -84 24 -63 -5 -96 -28 -132 -93 -26 -47
-28 -57 -28 -173 l0 -122 -30 6 c-60 13 -194 71 -268 117 l-75 47 -65 133
c-58 116 -120 284 -129 342 -3 26 18 76 60 145 39 62 141 190 151 190 4 0 45
-16 91 -36z m3817 -61 c56 -45 82 -104 83 -186 0 -93 -19 -131 -82 -163 -61
-31 -96 -26 -143 22 -47 47 -79 151 -73 241 4 59 7 68 37 95 31 27 39 30 88
26 40 -4 62 -12 90 -35z m-5539 -89 c6 -12 25 -33 42 -47 27 -23 28 -26 11
-32 -27 -8 -89 -79 -97 -110 -3 -14 -10 -25 -15 -25 -15 0 -10 139 8 234 l17
90 11 -45 c7 -24 17 -54 23 -65z m5286 54 c-13 -45 -19 -51 -34 -33 -11 13
-10 14 5 9 15 -6 17 -3 13 19 -4 19 -1 27 9 27 10 0 12 -6 7 -22z m35 -257
c26 -50 26 -53 -1 -49 -28 4 -52 51 -69 135 -11 51 -10 64 1 78 13 15 16 9 32
-53 9 -39 26 -89 37 -111z m-5019 159 c0 -5 -5 -10 -11 -10 -5 0 -7 5 -4 10 3
6 8 10 11 10 2 0 4 -4 4 -10z m30 -39 c0 -10 -11 -26 -25 -35 -35 -23 -43 -20
-12 4 15 12 24 27 20 35 -3 8 0 15 6 15 6 0 11 -8 11 -19z m-157 -35 c44 -19
81 -61 112 -128 56 -124 38 -261 -39 -293 -47 -20 -62 -19 -96 7 -16 12 -33
18 -37 14 -4 -4 -1 -11 7 -16 13 -8 12 -10 -3 -10 -29 0 -102 82 -120 135 -32
93 -14 222 36 264 16 12 82 40 100 41 4 0 22 -6 40 -14z m182 -60 c25 -25 53
-103 62 -176 4 -35 1 -49 -11 -59 -26 -22 -43 2 -49 68 -3 33 -17 85 -31 116
-34 76 -20 100 29 51z m5290 -103 c-3 -32 -11 -77 -17 -101 l-10 -42 -21 41
c-11 22 -28 46 -37 52 -16 9 -14 13 17 34 43 29 51 29 27 1 -12 -14 -13 -18
-3 -10 9 6 19 8 23 4 5 -4 7 4 5 18 -2 25 8 60 18 60 3 0 2 -26 -2 -57z m-271
-39 c-33 -18 -31 -18 -36 11 -6 29 18 39 44 17 17 -14 16 -16 -8 -28z m-1673
-29 c16 -35 29 -71 29 -79 0 -20 -126 -127 -227 -193 -174 -114 -425 -203
-569 -203 l-34 0 0 108 0 108 108 81 c59 44 145 117 192 161 l85 81 193 1 193
0 30 -65z m1833 -24 c39 -40 44 -94 17 -157 -12 -27 -32 -59 -44 -72 -24 -26
-76 -56 -84 -49 -2 3 5 8 16 12 12 3 19 11 16 16 -4 5 -23 -2 -43 -16 -41 -28
-51 -30 -86 -14 -32 15 -50 59 -42 103 12 61 65 155 104 181 52 36 110 34 146
-4z m-230 -18 c-33 -51 -54 -98 -60 -135 -4 -25 -13 -38 -26 -41 -18 -5 -19
-4 -4 12 9 10 16 22 16 27 0 27 32 114 51 138 27 35 46 34 23 -1z m-1438 -55
c-19 -24 -61 -66 -93 -95 -116 -103 -115 -95 2 19 66 65 121 117 123 118 2 0
-12 -19 -32 -42z m-3487 -30 c-27 -10 -30 -8 -22 20 5 22 6 22 25 5 19 -17 19
-17 -3 -25z m111 -74 c116 -53 155 -126 110 -199 -34 -55 -102 -71 -194 -45
-77 21 -126 82 -126 156 0 46 14 71 53 94 43 27 91 25 157 -6z m-312 -52 l59
3 -4 -35 c-3 -21 2 -52 11 -73 l15 -38 -29 18 c-16 9 -60 48 -97 86 -38 38
-56 62 -41 52 20 -12 43 -16 86 -13z m5060 -29 c35 -30 38 -68 7 -99 -24 -24
-32 -26 -87 -22 -48 4 -65 9 -79 27 -39 48 -19 88 49 102 62 12 89 10 110 -8z
m-4407 -3 c24 -13 25 -51 1 -80 -22 -27 -98 -38 -142 -20 -24 10 -30 19 -30
41 0 16 3 28 8 27 4 0 27 8 52 20 50 24 82 27 111 12z m2819 -5 c0 -11 -158
-109 -241 -151 -86 -43 -253 -105 -280 -104 -8 1 32 16 89 35 115 38 265 113
362 179 70 48 70 48 70 41z m1714 -75 l31 -7 -30 -13 c-16 -7 -42 -16 -56 -20
l-25 -8 15 34 c8 18 19 30 24 27 6 -3 24 -9 41 -13z m-4667 -67 c14 -11 13
-13 -8 -21 -13 -5 -39 -12 -57 -15 l-34 -7 26 31 c14 17 26 38 26 47 1 15 3
14 16 -3 8 -11 22 -25 31 -32z m1069 18 c15 -13 159 -70 200 -79 33 -7 41 -15
66 -62 15 -29 26 -55 25 -57 -6 -6 -145 71 -211 118 -105 73 -124 89 -105 89
8 0 19 -4 25 -9z m769 -99 c-3 -3 -11 0 -18 7 -9 10 -8 11 6 5 10 -3 15 -9 12
-12z m80 -22 c33 -12 46 -18 29 -16 -29 5 -106 33 -94 35 3 0 32 -8 65 -19z
m488 -17 c-7 -2 -19 -2 -25 0 -7 3 -2 5 12 5 14 0 19 -2 13 -5z m-390 -10 c-7
-2 -19 -2 -25 0 -7 3 -2 5 12 5 14 0 19 -2 13 -5z m340 0 c-7 -2 -19 -2 -25 0
-7 3 -2 5 12 5 14 0 19 -2 13 -5z m-235 -10 c-15 -2 -42 -2 -60 0 -18 2 -6 4
27 4 33 0 48 -2 33 -4z m149 0 c-20 -2 -52 -2 -70 0 -17 2 0 4 38 4 39 0 53
-2 32 -4z"/>
<path d="M3415 9089 c-11 -6 -47 -46 -80 -89 -33 -43 -150 -193 -260 -334
l-199 -256 -126 125 c-97 96 -131 125 -151 125 -38 0 -149 -114 -149 -152 0
-22 37 -66 195 -227 108 -109 206 -202 220 -205 13 -3 35 -2 48 3 14 6 124
135 265 313 133 167 282 353 332 414 114 141 114 146 19 232 -71 64 -80 68
-114 51z"/>
<path d="M9213 8981 c-46 -43 -63 -65 -63 -85 0 -19 38 -68 153 -197 83 -94
153 -174 154 -178 1 -3 -75 -76 -168 -161 -201 -183 -199 -179 -113 -276 43
-49 62 -64 83 -64 21 0 63 33 194 155 91 85 168 155 171 155 2 0 66 -71 141
-157 159 -183 170 -193 199 -193 28 0 156 120 156 147 0 12 -63 91 -155 196
l-155 176 170 157 c94 86 171 164 171 173 3 34 -4 46 -59 108 -41 47 -62 63
-81 63 -26 0 -80 -46 -295 -248 -63 -60 -69 -63 -85 -48 -9 9 -79 87 -156 174
-171 191 -170 190 -262 103z"/>
<path d="M5793 8973 l-52 -4 -56 -177 c-31 -97 -65 -205 -77 -240 -11 -35 -18
-66 -15 -69 3 -3 28 -2 55 2 48 6 49 7 63 53 l15 47 86 3 85 3 13 -46 13 -45
53 0 c45 0 54 3 53 18 0 9 -35 116 -78 237 -52 148 -81 220 -91 221 -8 0 -38
-1 -67 -3z m46 -202 c29 -90 29 -91 -29 -91 -27 0 -50 3 -50 6 0 24 45 163 50
157 4 -4 17 -37 29 -72z"/>
<path d="M6115 8968 c-2 -7 -9 -83 -15 -170 -13 -183 -7 -221 45 -266 47 -42
130 -60 193 -43 54 14 107 61 121 105 14 43 44 343 36 356 -3 5 -28 10 -56 10
-44 0 -49 -2 -49 -22 0 -78 -32 -304 -45 -324 -29 -45 -102 -44 -131 1 -15 23
-15 40 -5 158 6 73 11 149 11 170 l0 37 -50 0 c-32 0 -52 -5 -55 -12z"/>
<path d="M6611 8849 c-7 -46 -23 -151 -36 -233 -14 -82 -24 -150 -22 -151 5
-5 251 -55 267 -55 12 0 21 12 28 41 12 48 8 51 -101 73 -37 8 -70 15 -72 17
-1 2 12 86 29 187 18 101 29 185 24 188 -4 3 -30 7 -56 11 l-49 5 -12 -83z"/>
<path d="M5280 8887 c-63 -19 -75 -25 -73 -42 1 -11 9 -110 19 -220 9 -110 19
-203 23 -206 3 -4 26 -1 51 5 l45 11 -3 71 -4 72 54 12 c117 27 170 81 171
173 1 63 -22 111 -63 132 -41 21 -131 18 -220 -8z m160 -87 c23 -23 25 -39 9
-74 -12 -26 -46 -44 -94 -48 -30 -3 -30 -3 -35 60 -5 63 -5 63 25 71 49 15 74
12 95 -9z"/>
<path d="M9546 6671 c-10 -16 3 -35 39 -58 64 -42 91 -1 28 42 -40 26 -58 31
-67 16z"/>
<path d="M2837 6553 c-51 -54 -73 -147 -41 -174 23 -19 44 -2 77 61 38 74 35
140 -7 140 -1 0 -14 -12 -29 -27z m40 -30 c-8 -10 -23 -37 -32 -61 -20 -49
-33 -50 -16 0 15 43 39 78 53 78 7 0 5 -7 -5 -17z"/>
<path d="M9797 6436 c-14 -35 40 -179 71 -191 58 -22 51 111 -9 176 -29 31
-54 37 -62 15z m52 -69 c13 -26 22 -49 20 -52 -11 -10 -52 39 -59 70 -11 51 9
41 39 -18z"/>
<path d="M10004 6255 c-6 -38 -10 -72 -8 -74 7 -8 25 84 22 112 -2 23 -6 12
-14 -38z"/>
<path d="M2600 6315 c0 -6 7 -21 16 -33 12 -17 12 -22 2 -23 -7 0 -4 -4 7 -9
34 -15 39 -11 18 13 -11 12 -25 31 -31 42 -6 11 -12 15 -12 10z"/>
<path d="M2764 6082 c-33 -22 -43 -83 -23 -143 33 -98 99 -89 99 14 0 44 -18
103 -36 122 -17 17 -24 18 -40 7z m13 -74 c-3 -8 -6 -5 -6 6 -1 11 2 17 5 13
3 -3 4 -12 1 -19z m29 -65 c-4 27 -1 37 10 37 16 0 20 -55 4 -65 -6 -4 -8 -11
-5 -16 4 -5 2 -9 -3 -9 -13 0 -32 47 -31 78 1 22 4 19 15 -18 14 -44 14 -45
10 -7z"/>
<path d="M9771 6098 c1 -24 3 -27 6 -10 2 12 9 22 14 22 6 0 7 -4 4 -10 -3 -5
2 -10 12 -11 10 0 13 -3 6 -6 -7 -2 -13 -9 -13 -15 0 -6 6 -5 15 2 17 14 7 33
-27 51 -16 9 -18 6 -17 -23z"/>
<path d="M9898 5923 c-27 -29 -38 -70 -38 -137 0 -63 11 -86 41 -86 43 0 85
150 58 206 -17 35 -40 41 -61 17z m27 -87 c-7 -52 -29 -116 -40 -116 -3 0 -3
11 1 24 3 13 1 27 -5 30 -6 4 -11 23 -11 42 0 21 4 33 10 29 6 -3 10 0 10 7 0
10 3 9 11 -2 8 -11 9 -6 7 22 -3 30 -1 35 10 26 10 -9 12 -25 7 -62z"/>
<path d="M9985 5610 c-21 -22 -24 -30 -13 -30 26 0 65 37 52 49 -7 8 -18 2
-39 -19z"/>
<path d="M2902 5608 c-29 -29 -5 -95 53 -147 96 -84 129 22 36 119 -38 41 -67
50 -89 28z m33 -28 c-13 -21 46 -99 85 -113 13 -5 13 -6 -1 -6 -17 -1 -70 51
-88 87 -11 20 -8 42 5 42 3 0 2 -4 -1 -10z"/>
<path d="M2923 5324 c0 -13 55 -26 62 -14 2 4 -11 11 -29 17 -25 8 -33 7 -33
-3z"/>
<path d="M3210 5430 c0 -5 5 -10 11 -10 5 0 7 5 4 10 -3 6 -8 10 -11 10 -2 0
-4 -4 -4 -10z"/>
<path d="M9685 5339 c-39 -35 -75 -96 -75 -129 0 -25 8 -25 38 0 14 11 20 24
16 31 -4 7 -3 9 4 5 6 -4 16 4 23 16 11 21 11 22 -5 9 -14 -12 -16 -12 -10 3
3 9 1 16 -5 16 -6 0 -8 7 -4 16 3 8 12 13 20 10 9 -4 11 -2 7 6 -5 7 -3 8 5 4
7 -5 10 -15 7 -23 -3 -8 -1 -11 4 -8 6 3 10 13 10 21 0 8 4 14 9 14 18 0 -10
-59 -51 -105 -24 -27 -48 -45 -61 -45 -20 0 -20 -1 -4 -17 16 -17 19 -16 52 1
48 26 107 115 109 163 1 34 -2 38 -26 41 -18 2 -37 -7 -63 -29z"/>
<path d="M3262 5258 c-29 -37 72 -108 155 -108 81 0 74 62 -11 101 -47 21
-129 25 -144 7z m84 -46 c-6 -5 -56 21 -56 29 0 5 13 0 29 -9 16 -9 28 -18 27
-20z"/>
<path d="M3631 5238 c6 -11 14 -16 17 -11 4 4 11 11 15 14 5 3 -3 9 -17 11
-22 5 -24 3 -15 -14z"/>
<path d="M9269 4940 c-68 -20 -112 -71 -86 -97 35 -35 187 37 187 88 0 15 -7
19 -37 18 -21 0 -50 -4 -64 -9z m60 -17 c-13 -15 -69 -43 -86 -43 -7 0 83 55
96 59 2 1 -3 -6 -10 -16z"/>
<path d="M4564 4506 c-47 -21 -50 -37 -4 -19 22 9 40 20 40 25 0 10 2 10 -36
-6z"/>
<path d="M4614 4465 c-52 -26 -82 -64 -69 -85 5 -8 22 -10 54 -6 27 4 41 3 33
-2 -9 -6 -6 -12 12 -22 21 -11 29 -10 58 7 36 21 46 59 16 57 -16 -2 -16 1 2
26 38 53 -21 67 -106 25z"/>
<path d="M4499 4319 c-10 -6 -7 -9 14 -9 29 0 35 5 14 13 -8 3 -20 1 -28 -4z"/>
<path d="M4231 4396 c2 -2 18 -6 34 -10 22 -5 26 -4 15 4 -14 9 -59 15 -49 6z"/>
<path d="M4162 4279 c-18 -5 -53 -29 -78 -53 -75 -72 -44 -108 55 -65 51 22
101 68 101 94 0 12 -31 37 -42 34 -2 0 -18 -5 -36 -10z m-52 -83 c0 -2 -8 -10
-17 -17 -16 -13 -17 -12 -4 4 13 16 21 21 21 13z"/>
<path d="M4711 4274 c0 -11 3 -14 6 -6 3 7 2 16 -1 19 -3 4 -6 -2 -5 -13z"/>
<path d="M4542 4232 c-26 -8 -31 -25 -8 -30 8 -2 34 2 57 8 31 9 39 14 28 21
-16 10 -43 10 -77 1z"/>
<path d="M8610 4229 c0 -6 -7 -9 -15 -5 -9 3 -15 0 -15 -10 0 -11 6 -14 16
-10 9 3 22 6 30 6 19 0 18 16 -1 24 -8 3 -15 1 -15 -5z"/>
<path d="M8678 4143 c6 -2 18 -2 25 0 6 3 1 5 -13 5 -14 0 -19 -2 -12 -5z"/>
<path d="M8633 4023 c-4 -10 5 -37 21 -67 16 -28 22 -45 13 -38 -12 10 -15 9
-20 -9 -4 -13 -10 -18 -18 -13 -7 4 -10 3 -5 -4 4 -7 16 -6 36 5 27 13 34 13
53 1 55 -36 103 -25 92 20 -18 74 -153 156 -172 105z"/>
<path d="M3775 3918 c-29 -23 -75 -110 -75 -143 0 -49 44 -58 82 -17 40 42 82
142 60 142 -15 0 -71 -65 -86 -100 -8 -19 -15 -28 -16 -19 0 21 53 103 80 122
22 16 20 37 -4 37 -7 0 -26 -10 -41 -22z"/>
<path d="M9040 3863 c0 -6 -9 -13 -21 -15 -16 -2 -12 -6 15 -14 20 -6 36 -8
36 -4 0 12 -29 45 -30 33z"/>
<path d="M8565 3829 c6 -28 34 -53 90 -79 44 -21 70 -26 60 -10 -3 5 -21 12
-40 16 -34 6 -82 39 -78 54 1 4 -6 15 -17 25 -19 17 -19 17 -15 -6z"/>
<path d="M9097 3690 c3 -11 9 -20 15 -20 5 0 4 9 -2 20 -6 11 -12 20 -14 20
-2 0 -2 -9 1 -20z"/>
<path d="M8946 3664 c-34 -33 -2 -160 47 -188 29 -18 50 18 43 76 -9 87 -57
146 -90 112z"/>
<path d="M3505 3666 c9 -42 43 -86 67 -86 18 0 17 4 -13 38 -19 21 -40 47 -47
58 -11 17 -12 16 -7 -10z"/>
<path d="M8801 3560 c-1 -25 19 -89 31 -96 7 -5 8 -3 3 6 -4 7 -13 33 -20 59
-7 25 -14 39 -14 31z"/>
<path d="M3670 3409 c-24 -45 12 -161 57 -182 33 -15 40 -1 14 27 -14 15 -24
40 -27 68 l-4 43 12 -45 c6 -25 13 -39 15 -32 4 10 9 8 19 -5 24 -32 17 46 -8
97 -27 52 -60 64 -78 29z m43 -24 c-3 -9 -8 -14 -10 -11 -3 3 -2 9 2 15 9 16
15 13 8 -4z"/>
<path d="M9082 3220 c0 -19 2 -27 5 -17 2 9 2 25 0 35 -3 9 -5 1 -5 -18z"/>
<path d="M8934 3198 c-15 -18 -33 -48 -41 -67 -13 -29 -13 -36 0 -48 28 -28
107 62 107 122 0 36 -32 33 -66 -7z"/>
<path d="M9056 3123 c-6 -14 -5 -15 5 -6 7 7 10 15 7 18 -3 3 -9 -2 -12 -12z"/>
<path d="M9036 3091 c-4 -5 -2 -12 3 -15 5 -4 12 -2 15 3 4 5 2 12 -3 15 -5 4
-12 2 -15 -3z"/>
<path d="M3931 3046 c-28 -33 39 -86 108 -86 16 0 33 4 36 10 11 18 -16 52
-58 71 -51 22 -71 24 -86 5z m74 -36 c3 -6 -1 -7 -9 -4 -18 7 -21 14 -7 14 6
0 13 -4 16 -10z"/>
<path d="M3837 2969 c3 -12 21 -30 39 -41 19 -11 31 -24 28 -29 -12 -20 60
-37 129 -32 37 3 69 9 72 13 2 3 -20 5 -50 2 -63 -5 -141 26 -192 76 -26 26
-30 28 -26 11z"/>
<path d="M8685 3001 c-17 -3 -30 -13 -30 -21 0 -17 52 -25 74 -11 14 9 9 42
-6 40 -4 -1 -21 -4 -38 -8z"/>
<path d="M8745 2940 c-3 -5 -20 -14 -38 -19 l-32 -9 36 -1 c22 -1 44 6 56 17
10 9 14 14 9 10 -14 -11 -28 -10 -21 2 3 6 4 10 1 10 -3 0 -8 -4 -11 -10z"/>
<path d="M4283 2973 c-7 -2 -13 -9 -13 -14 0 -15 53 -6 58 9 4 12 -21 15 -45
5z"/>
</g>
</svg>
